G04 Layer: TopLayer*
G04 EasyEDA v6.4.25, 2021-12-20T14:24:14+08:00*
G04 e4404237a4cc4071a16999871e39c68f,c1e8d67ad17f4412881db65ed68e30a3,10*
G04 Gerber Generator version 0.2*
G04 Scale: 100 percent, Rotated: No, Reflected: No *
G04 Dimensions in millimeters *
G04 leading zeros omitted , absolute positions ,4 integer and 5 decimal *
%FSLAX45Y45*%
%MOMM*%

%ADD10C,0.2540*%
%ADD11C,0.5000*%
%ADD12C,0.6300*%
%ADD13C,0.6096*%
%ADD14C,0.2500*%
%ADD17R,0.5400X0.5657*%
%ADD19R,0.7000X1.4000*%
%ADD20R,1.0000X3.2000*%
%ADD21R,1.4000X1.2000*%
%ADD22R,0.5400X0.7901*%
%ADD23R,1.5000X0.8000*%

%LPD*%
G36*
X2191969Y13896746D02*
G01*
X2188057Y13897508D01*
X2184755Y13899692D01*
X2182571Y13902994D01*
X2181809Y13906906D01*
X2181809Y13944955D01*
X2180082Y13944955D01*
X2176170Y13945717D01*
X2172868Y13947952D01*
X2170684Y13951254D01*
X2169922Y13955115D01*
X2169922Y13974521D01*
X2170684Y13978382D01*
X2172868Y13981684D01*
X2176170Y13983919D01*
X2180082Y13984681D01*
X2183180Y13984681D01*
X2185466Y13987373D01*
X2188514Y13989100D01*
X2191969Y13989710D01*
X2212594Y13989710D01*
X2216048Y13989100D01*
X2219096Y13987373D01*
X2221382Y13984681D01*
X2250033Y13984681D01*
X2253894Y13983919D01*
X2257196Y13981684D01*
X2259431Y13978382D01*
X2260193Y13974521D01*
X2260193Y13955115D01*
X2259431Y13951254D01*
X2257196Y13947952D01*
X2253894Y13945717D01*
X2250033Y13944955D01*
X2222754Y13944955D01*
X2222754Y13906906D01*
X2221992Y13902994D01*
X2219807Y13899692D01*
X2216505Y13897508D01*
X2212594Y13896746D01*
G37*

%LPD*%
G36*
X1981301Y13408812D02*
G01*
X1977440Y13409472D01*
X1974138Y13411555D01*
X1966163Y13422833D01*
X1959254Y13429742D01*
X1951329Y13435330D01*
X1941322Y13439901D01*
X1938426Y13441934D01*
X1936394Y13444829D01*
X1935480Y13448233D01*
X1935022Y13453160D01*
X1932533Y13462558D01*
X1928368Y13471398D01*
X1922830Y13479373D01*
X1915922Y13486231D01*
X1904085Y13494512D01*
X1902053Y13498118D01*
X1901545Y13502182D01*
X1901901Y13506043D01*
X1901240Y13513866D01*
X1901698Y13518032D01*
X1903831Y13521639D01*
X1907235Y13524026D01*
X1911350Y13524890D01*
X1979523Y13524890D01*
X1985873Y13525601D01*
X1991309Y13527532D01*
X1994712Y13529665D01*
X1998218Y13531037D01*
X2001977Y13531037D01*
X2005482Y13529665D01*
X2008886Y13527532D01*
X2014372Y13525601D01*
X2020671Y13524890D01*
X2119528Y13524890D01*
X2125827Y13525601D01*
X2131314Y13527532D01*
X2134717Y13529665D01*
X2138222Y13531037D01*
X2141982Y13531037D01*
X2145487Y13529665D01*
X2148890Y13527532D01*
X2154326Y13525601D01*
X2160676Y13524890D01*
X2229510Y13524890D01*
X2235860Y13525601D01*
X2241296Y13527532D01*
X2246223Y13530630D01*
X2250287Y13534694D01*
X2253386Y13539622D01*
X2255316Y13545057D01*
X2256028Y13551407D01*
X2256028Y13690244D01*
X2255316Y13696594D01*
X2253386Y13702030D01*
X2251252Y13705433D01*
X2249881Y13708938D01*
X2249881Y13712698D01*
X2251252Y13716203D01*
X2253437Y13719708D01*
X2255875Y13722350D01*
X2259126Y13724026D01*
X2262733Y13724432D01*
X2266238Y13723518D01*
X2269998Y13720724D01*
X2274874Y13717625D01*
X2280361Y13715746D01*
X2286660Y13714984D01*
X2385517Y13714984D01*
X2391867Y13715746D01*
X2397302Y13717625D01*
X2402230Y13720724D01*
X2406294Y13724788D01*
X2409393Y13729716D01*
X2411272Y13735151D01*
X2411984Y13741501D01*
X2411984Y13820343D01*
X2411272Y13826693D01*
X2409393Y13832128D01*
X2406294Y13837005D01*
X2402230Y13841120D01*
X2397302Y13844219D01*
X2391867Y13846098D01*
X2385517Y13846810D01*
X2286660Y13846810D01*
X2280361Y13846098D01*
X2274874Y13844219D01*
X2271572Y13842136D01*
X2267508Y13840663D01*
X2263241Y13840968D01*
X2259482Y13843050D01*
X2256942Y13846505D01*
X2256028Y13850721D01*
X2256028Y13870228D01*
X2255316Y13876578D01*
X2253386Y13882014D01*
X2250287Y13886942D01*
X2246223Y13891006D01*
X2241296Y13894104D01*
X2239772Y13894663D01*
X2236216Y13896797D01*
X2233777Y13900150D01*
X2232964Y13904213D01*
X2233777Y13908278D01*
X2236216Y13911681D01*
X2239772Y13913815D01*
X2241753Y13914526D01*
X2246680Y13917625D01*
X2248408Y13919301D01*
X2251354Y13921384D01*
X2254910Y13922298D01*
X2258517Y13921892D01*
X2261717Y13920216D01*
X2264156Y13917523D01*
X2265883Y13914831D01*
X2269998Y13910716D01*
X2274874Y13907668D01*
X2280361Y13905738D01*
X2286660Y13905026D01*
X2385517Y13905026D01*
X2391867Y13905738D01*
X2397302Y13907668D01*
X2402230Y13910716D01*
X2406294Y13914831D01*
X2409393Y13919707D01*
X2411272Y13925194D01*
X2411984Y13931493D01*
X2411984Y14010335D01*
X2411272Y14016685D01*
X2409393Y14022120D01*
X2406294Y14027048D01*
X2402230Y14031112D01*
X2397302Y14034211D01*
X2391867Y14036141D01*
X2385517Y14036852D01*
X2328976Y14036852D01*
X2325116Y14037614D01*
X2321814Y14039799D01*
X2306370Y14055242D01*
X2300122Y14060373D01*
X2293467Y14063929D01*
X2286203Y14066113D01*
X2278176Y14066926D01*
X2102612Y14066926D01*
X2098700Y14067688D01*
X2095398Y14069923D01*
X2093214Y14073276D01*
X2092452Y14077238D01*
X2093315Y14081099D01*
X2095550Y14084401D01*
X2098954Y14086535D01*
X2119528Y14094510D01*
X2146808Y14103045D01*
X2174544Y14109700D01*
X2202738Y14114526D01*
X2231136Y14117421D01*
X2259685Y14118437D01*
X2288235Y14117574D01*
X2316683Y14114780D01*
X2344877Y14110055D01*
X2372664Y14103502D01*
X2399995Y14095120D01*
X2426665Y14084909D01*
X2452624Y14072920D01*
X2477719Y14059255D01*
X2501798Y14043964D01*
X2524861Y14027099D01*
X2546705Y14008709D01*
X2567330Y13988897D01*
X2586532Y13967764D01*
X2594051Y13958316D01*
X2595829Y13954963D01*
X2596235Y13951204D01*
X2595270Y13947597D01*
X2593035Y13944549D01*
X2589834Y13942517D01*
X2586126Y13941806D01*
X2516682Y13941806D01*
X2510332Y13941094D01*
X2504897Y13939215D01*
X2499969Y13936116D01*
X2495905Y13932052D01*
X2492806Y13927124D01*
X2490876Y13921689D01*
X2490165Y13915339D01*
X2490165Y13836497D01*
X2490876Y13830147D01*
X2492806Y13824712D01*
X2495905Y13819784D01*
X2499969Y13815720D01*
X2504897Y13812621D01*
X2510332Y13810742D01*
X2516682Y13810030D01*
X2567432Y13810030D01*
X2571343Y13809218D01*
X2574594Y13807033D01*
X2576830Y13803731D01*
X2577592Y13799870D01*
X2577592Y13795400D01*
X2577033Y13792149D01*
X2575509Y13789202D01*
X2569006Y13782852D01*
X2565908Y13777925D01*
X2564079Y13772642D01*
X2561894Y13769086D01*
X2558542Y13766698D01*
X2554478Y13765834D01*
X2539034Y13765834D01*
X2531008Y13765022D01*
X2523744Y13762837D01*
X2517089Y13759281D01*
X2510891Y13754150D01*
X2479090Y13722350D01*
X2475788Y13720165D01*
X2471877Y13719403D01*
X2450084Y13719403D01*
X2443734Y13718692D01*
X2438298Y13716762D01*
X2433370Y13713663D01*
X2429306Y13709599D01*
X2426208Y13704671D01*
X2424328Y13699236D01*
X2423617Y13691311D01*
X2422804Y13687450D01*
X2420620Y13684148D01*
X2386076Y13649553D01*
X2380945Y13643356D01*
X2377389Y13636650D01*
X2375204Y13629436D01*
X2374392Y13621410D01*
X2374392Y13489381D01*
X2373731Y13485774D01*
X2371801Y13482624D01*
X2368905Y13480338D01*
X2365349Y13479272D01*
X2358339Y13478510D01*
X2352903Y13476579D01*
X2347976Y13473531D01*
X2343912Y13469416D01*
X2340813Y13464540D01*
X2339390Y13460476D01*
X2337460Y13457174D01*
X2334412Y13454786D01*
X2330704Y13453719D01*
X2326843Y13454126D01*
X2318918Y13456513D01*
X2310892Y13457326D01*
X2190140Y13457326D01*
X2186076Y13458190D01*
X2182672Y13460577D01*
X2177288Y13469416D01*
X2173224Y13473531D01*
X2168296Y13476579D01*
X2162860Y13478510D01*
X2156561Y13479221D01*
X2017674Y13479221D01*
X2011375Y13478510D01*
X2005888Y13476579D01*
X2001012Y13473531D01*
X1996897Y13469416D01*
X1993798Y13464540D01*
X1991918Y13459053D01*
X1991207Y13452754D01*
X1991207Y13418972D01*
X1990445Y13415162D01*
X1988312Y13411911D01*
X1985111Y13409676D01*
G37*

%LPD*%
G36*
X2539644Y13370204D02*
G01*
X2535885Y13371118D01*
X2532786Y13373354D01*
X2530703Y13376605D01*
X2529992Y13380364D01*
X2529992Y13452754D01*
X2529281Y13459053D01*
X2527401Y13464540D01*
X2524302Y13469416D01*
X2520188Y13473531D01*
X2515311Y13476579D01*
X2509824Y13478510D01*
X2503525Y13479221D01*
X2461768Y13479221D01*
X2457856Y13479983D01*
X2454605Y13482218D01*
X2452370Y13485520D01*
X2451608Y13489381D01*
X2451608Y13514273D01*
X2452370Y13518184D01*
X2454605Y13521486D01*
X2457856Y13523671D01*
X2461768Y13524433D01*
X2502916Y13524433D01*
X2509266Y13525144D01*
X2514041Y13526820D01*
X2517495Y13527379D01*
X2520899Y13526769D01*
X2523896Y13525042D01*
X2531313Y13518794D01*
X2537968Y13515289D01*
X2545181Y13513104D01*
X2552700Y13512342D01*
X2560218Y13513104D01*
X2567432Y13515289D01*
X2574137Y13518845D01*
X2579979Y13523620D01*
X2584754Y13529462D01*
X2588310Y13536168D01*
X2591460Y13546988D01*
X2593492Y13549833D01*
X2596337Y13551865D01*
X2596337Y13592098D01*
X2570276Y13592098D01*
X2566416Y13592860D01*
X2563114Y13595096D01*
X2552598Y13605560D01*
X2546400Y13610691D01*
X2539746Y13614247D01*
X2534564Y13615822D01*
X2530957Y13617752D01*
X2528417Y13620953D01*
X2527350Y13624864D01*
X2527909Y13628928D01*
X2528671Y13631163D01*
X2529382Y13637463D01*
X2529382Y13659307D01*
X2530195Y13663168D01*
X2532380Y13666469D01*
X2548382Y13682472D01*
X2551785Y13684757D01*
X2555798Y13685469D01*
X2559761Y13684554D01*
X2563063Y13682167D01*
X2565146Y13678662D01*
X2566060Y13676071D01*
X2566619Y13672718D01*
X2566060Y13669365D01*
X2564028Y13663472D01*
X2563317Y13657122D01*
X2563317Y13644321D01*
X2596337Y13644321D01*
X2596337Y13651636D01*
X2597099Y13655548D01*
X2599334Y13658850D01*
X2602636Y13661034D01*
X2606497Y13661796D01*
X2625902Y13661796D01*
X2629763Y13661034D01*
X2633065Y13658850D01*
X2635300Y13655548D01*
X2636062Y13651636D01*
X2636062Y13644321D01*
X2674213Y13644321D01*
X2678430Y13643406D01*
X2681884Y13640866D01*
X2683967Y13637107D01*
X2684322Y13632840D01*
X2682748Y13620953D01*
X2678633Y13600277D01*
X2677363Y13597026D01*
X2675128Y13594435D01*
X2672080Y13592708D01*
X2668676Y13592098D01*
X2636062Y13592098D01*
X2636062Y13552779D01*
X2642565Y13552779D01*
X2650337Y13553744D01*
X2654401Y13553389D01*
X2658008Y13551509D01*
X2660548Y13548360D01*
X2661666Y13544397D01*
X2660446Y13538352D01*
X2649372Y13511987D01*
X2636570Y13486434D01*
X2622143Y13461796D01*
X2606040Y13438174D01*
X2588463Y13415670D01*
X2569362Y13394436D01*
X2548890Y13374471D01*
X2546756Y13372642D01*
X2543403Y13370763D01*
G37*

%LPD*%
G36*
X736092Y13125907D02*
G01*
X732180Y13126669D01*
X728878Y13128904D01*
X726694Y13132155D01*
X725932Y13136067D01*
X725932Y14163954D01*
X726694Y14167815D01*
X728878Y14171117D01*
X732180Y14173301D01*
X736092Y14174114D01*
X1192225Y14174114D01*
X1196136Y14173301D01*
X1199438Y14171117D01*
X1201623Y14167815D01*
X1202385Y14163954D01*
X1202385Y14108379D01*
X1202994Y14102842D01*
X1202740Y14099032D01*
X1201013Y14095577D01*
X1198168Y14092986D01*
X1194612Y14091666D01*
X1192428Y14091310D01*
X1183436Y14088262D01*
X1175105Y14083741D01*
X1167638Y14077899D01*
X1161237Y14070939D01*
X1156055Y14063014D01*
X1152296Y14054480D01*
X1150061Y14051280D01*
X1146810Y14049146D01*
X1143000Y14048384D01*
X1139190Y14049146D01*
X1135938Y14051280D01*
X1133703Y14054480D01*
X1129944Y14063014D01*
X1124762Y14070939D01*
X1118362Y14077899D01*
X1110894Y14083741D01*
X1106881Y14085874D01*
X1104087Y14088110D01*
X1102258Y14091157D01*
X1101598Y14094663D01*
X1102156Y14098168D01*
X1103477Y14102029D01*
X1104188Y14108379D01*
X1104188Y14121434D01*
X1047140Y14121434D01*
X1047140Y14087957D01*
X1046683Y14084909D01*
X1045362Y14082166D01*
X1043228Y14079931D01*
X1040637Y14077899D01*
X1034237Y14070939D01*
X1029055Y14063014D01*
X1025296Y14054480D01*
X1023061Y14051280D01*
X1019810Y14049146D01*
X1016000Y14048384D01*
X1012190Y14049146D01*
X1008938Y14051280D01*
X1006703Y14054480D01*
X1002944Y14063014D01*
X997762Y14070939D01*
X991362Y14077899D01*
X983894Y14083741D01*
X975563Y14088262D01*
X966317Y14091412D01*
X962710Y14093545D01*
X960323Y14096949D01*
X959459Y14101013D01*
X959459Y14121434D01*
X902411Y14121434D01*
X902411Y14108379D01*
X903122Y14102029D01*
X905002Y14096593D01*
X908100Y14091666D01*
X910691Y14089075D01*
X912876Y14085874D01*
X913688Y14082115D01*
X913028Y14078305D01*
X910996Y14075003D01*
X907237Y14070939D01*
X902055Y14063014D01*
X898245Y14054328D01*
X895908Y14045133D01*
X895096Y14035278D01*
X895096Y13874140D01*
X895908Y13864234D01*
X898245Y13855090D01*
X902055Y13846403D01*
X904748Y13841526D01*
X905154Y13838631D01*
X905154Y13788847D01*
X905357Y13784224D01*
X905916Y13779804D01*
X906881Y13775486D01*
X908202Y13771219D01*
X909929Y13767155D01*
X911961Y13763193D01*
X914349Y13759434D01*
X917041Y13755928D01*
X920191Y13752474D01*
X1056030Y13616635D01*
X1059484Y13613485D01*
X1062990Y13610793D01*
X1066749Y13608405D01*
X1070711Y13606373D01*
X1074775Y13604646D01*
X1079042Y13603325D01*
X1083360Y13602360D01*
X1087780Y13601801D01*
X1092403Y13601598D01*
X1270101Y13601598D01*
X1274013Y13600836D01*
X1277264Y13598601D01*
X1495501Y13380364D01*
X1497736Y13377113D01*
X1498498Y13373201D01*
X1498498Y13345160D01*
X1497736Y13341248D01*
X1495501Y13337997D01*
X1492199Y13335762D01*
X1488338Y13335000D01*
X1399032Y13335000D01*
X1394714Y13335965D01*
X1391208Y13338708D01*
X1389176Y13342670D01*
X1387754Y13348309D01*
X1383944Y13356996D01*
X1378762Y13364921D01*
X1372362Y13371931D01*
X1364894Y13377722D01*
X1356563Y13382244D01*
X1355598Y13382548D01*
X1355598Y13345160D01*
X1354836Y13341248D01*
X1352600Y13337997D01*
X1349349Y13335762D01*
X1345438Y13335000D01*
X1321562Y13335000D01*
X1317650Y13335762D01*
X1314399Y13337997D01*
X1312164Y13341248D01*
X1311402Y13345160D01*
X1311402Y13382548D01*
X1310436Y13382244D01*
X1302105Y13377722D01*
X1294638Y13371931D01*
X1288237Y13364921D01*
X1283055Y13356996D01*
X1280363Y13350951D01*
X1278128Y13347750D01*
X1274826Y13345617D01*
X1270965Y13344855D01*
X1267104Y13345668D01*
X1263853Y13347903D01*
X1261668Y13351154D01*
X1260906Y13355015D01*
X1260906Y13497661D01*
X1261973Y13502995D01*
X1262837Y13512800D01*
X1261973Y13522604D01*
X1259433Y13532053D01*
X1255318Y13540994D01*
X1249680Y13549020D01*
X1242720Y13555980D01*
X1234694Y13561618D01*
X1225753Y13565733D01*
X1216304Y13568273D01*
X1206500Y13569137D01*
X1196695Y13568273D01*
X1187246Y13565733D01*
X1178306Y13561618D01*
X1170279Y13555980D01*
X1163320Y13549020D01*
X1157681Y13540994D01*
X1153566Y13532053D01*
X1151026Y13522604D01*
X1150162Y13512800D01*
X1151026Y13502995D01*
X1153566Y13493546D01*
X1158138Y13483742D01*
X1159103Y13479424D01*
X1159103Y13364718D01*
X1158697Y13361822D01*
X1156055Y13356996D01*
X1152296Y13348462D01*
X1150061Y13345261D01*
X1146810Y13343178D01*
X1143000Y13342416D01*
X1139190Y13343178D01*
X1135938Y13345261D01*
X1133703Y13348462D01*
X1129944Y13356996D01*
X1124762Y13364921D01*
X1118362Y13371931D01*
X1110894Y13377722D01*
X1102563Y13382244D01*
X1093571Y13385342D01*
X1084224Y13386866D01*
X1074775Y13386866D01*
X1065428Y13385342D01*
X1056436Y13382244D01*
X1048105Y13377722D01*
X1040637Y13371931D01*
X1034237Y13364921D01*
X1029055Y13356996D01*
X1025296Y13348462D01*
X1023061Y13345261D01*
X1019810Y13343178D01*
X1016000Y13342416D01*
X1012190Y13343178D01*
X1008938Y13345261D01*
X1006703Y13348462D01*
X1002944Y13356996D01*
X997762Y13364921D01*
X991362Y13371931D01*
X983894Y13377722D01*
X975563Y13382244D01*
X966571Y13385342D01*
X957224Y13386866D01*
X947775Y13386866D01*
X938428Y13385342D01*
X929436Y13382244D01*
X921105Y13377722D01*
X913637Y13371931D01*
X907237Y13364921D01*
X902055Y13356996D01*
X898245Y13348309D01*
X896823Y13342670D01*
X894791Y13338708D01*
X891286Y13335965D01*
X886968Y13335000D01*
X822858Y13335000D01*
X818794Y13335863D01*
X815441Y13338251D01*
X813308Y13341807D01*
X812596Y13343788D01*
X809498Y13348716D01*
X805434Y13352780D01*
X800506Y13355878D01*
X795070Y13357809D01*
X788720Y13358520D01*
X775665Y13358520D01*
X775665Y13345160D01*
X774852Y13341248D01*
X772668Y13337997D01*
X769366Y13335762D01*
X765505Y13335000D01*
X762152Y13334847D01*
X762000Y13333984D01*
X762000Y13136067D01*
X761238Y13132155D01*
X759002Y13128904D01*
X755751Y13126669D01*
X751840Y13125907D01*
G37*

%LPD*%
D10*
X2202284Y13964815D02*
G01*
X2291184Y13875915D01*
X2476500Y13875915D01*
X2019300Y13977515D02*
G01*
X2070100Y14028315D01*
X2278694Y14028315D01*
X2336106Y13970904D01*
X2087090Y13393315D02*
G01*
X2112490Y13418715D01*
X2311400Y13418715D01*
X2476500Y13578631D02*
G01*
X2524968Y13578631D01*
X2552700Y13550900D01*
X2434109Y13393315D02*
G01*
X2413000Y13414430D01*
X2413000Y13621915D01*
X2456284Y13665200D01*
X2476500Y13665200D01*
X2476500Y13665200D02*
G01*
X2538524Y13727224D01*
X2616200Y13727224D01*
X2566106Y13875915D02*
G01*
X2616200Y13825809D01*
X2616200Y13727224D01*
X2195090Y13800813D02*
G01*
X2214984Y13780919D01*
X2336106Y13780919D01*
D11*
X1303273Y14147800D02*
G01*
X1422400Y14147800D01*
X1549400Y14020800D01*
X1549400Y13182600D01*
X956055Y13942060D02*
G01*
X956055Y13788644D01*
X1092200Y13652500D01*
X1295400Y13652500D01*
X1549400Y13398500D01*
X1549400Y13182600D01*
X1282700Y14058900D02*
G01*
X1337015Y14004584D01*
X1337015Y13942009D01*
X1210015Y13235993D02*
G01*
X1210015Y13509284D01*
X1206500Y13512800D01*
X1210015Y13942006D02*
G01*
X1210015Y13770315D01*
X1206500Y13766800D01*
D12*
X952500Y13329691D02*
G01*
X952500Y13167690D01*
X1079500Y13329691D02*
G01*
X1079500Y13167690D01*
X1206500Y13329691D02*
G01*
X1206500Y13167690D01*
X1333500Y13329691D02*
G01*
X1333500Y13167690D01*
X952500Y14035709D02*
G01*
X952500Y13873708D01*
X1079500Y14035709D02*
G01*
X1079500Y13873708D01*
X1206500Y14035709D02*
G01*
X1206500Y13873708D01*
X1333500Y14035709D02*
G01*
X1333500Y13873708D01*
G36*
X709297Y13332599D02*
G01*
X789297Y13332599D01*
X789297Y13032600D01*
X709297Y13032600D01*
G37*
G36*
X2143998Y13991818D02*
G01*
X2143998Y13937818D01*
X2087435Y13937818D01*
X2087435Y13991818D01*
G37*
G36*
X2174001Y13991818D02*
G01*
X2174001Y13937818D01*
X2230564Y13937818D01*
X2230564Y13991818D01*
G37*
G36*
X2503500Y13636919D02*
G01*
X2449499Y13636919D01*
X2449499Y13693482D01*
X2503500Y13693482D01*
G37*
D17*
G01*
X2476500Y13578636D03*
G36*
X2286099Y13820917D02*
G01*
X2386098Y13820917D01*
X2386098Y13740917D01*
X2286099Y13740917D01*
G37*
G36*
X2516101Y13915913D02*
G01*
X2616100Y13915913D01*
X2616100Y13835913D01*
X2516101Y13835913D01*
G37*
G36*
X2286101Y14010919D02*
G01*
X2386101Y14010919D01*
X2386101Y13930919D01*
X2286101Y13930919D01*
G37*
D19*
G01*
X2195093Y13800810D03*
D20*
G01*
X2070100Y13710818D03*
D19*
G01*
X1945106Y13620826D03*
G01*
X2195093Y13620826D03*
G01*
X1945106Y13800810D03*
D21*
G01*
X2087092Y13393318D03*
G01*
X2434107Y13393318D03*
G36*
X2643200Y13687719D02*
G01*
X2589199Y13687719D01*
X2589199Y13766728D01*
X2643200Y13766728D01*
G37*
D22*
G01*
X2616200Y13618210D03*
D23*
G01*
X1003300Y14147800D03*
G01*
X1303299Y14147800D03*
D13*
G01*
X1206500Y13766800D03*
G01*
X1206500Y13512800D03*
G01*
X1282700Y14058900D03*
G01*
X956005Y13942009D03*
G01*
X1549298Y13182600D03*
G01*
X1003300Y14147800D03*
G01*
X800100Y13512800D03*
D14*
G01*
X2260600Y13482218D03*
G01*
X2476500Y13875918D03*
G01*
X2641600Y13533018D03*
G01*
X2019300Y13977518D03*
G01*
X2311400Y13418718D03*
G01*
X2552700Y13550900D03*
M02*
