G04 Layer: BottomPasteMaskLayer*
G04 EasyEDA v6.4.25, 2021-12-20T14:24:14+08:00*
G04 e4404237a4cc4071a16999871e39c68f,c1e8d67ad17f4412881db65ed68e30a3,10*
G04 Gerber Generator version 0.2*
G04 Scale: 100 percent, Rotated: No, Reflected: No *
G04 Dimensions in millimeters *
G04 leading zeros omitted , absolute positions ,4 integer and 5 decimal *
%FSLAX45Y45*%
%MOMM*%

%ADD24C,0.7000*%

%LPD*%
G36*
X2016912Y13748766D02*
G01*
X2015794Y13748664D01*
X2014728Y13748308D01*
X2012950Y13746886D01*
X2012340Y13745921D01*
X2011984Y13744854D01*
X2011984Y13702284D01*
X2012340Y13701217D01*
X2013762Y13699490D01*
X2014728Y13698880D01*
X2016912Y13698372D01*
X2169312Y13698372D01*
X2171496Y13698880D01*
X2173274Y13700302D01*
X2173884Y13701217D01*
X2174240Y13702284D01*
X2174240Y13744854D01*
X2173884Y13745921D01*
X2172462Y13747699D01*
X2171496Y13748308D01*
X2170430Y13748664D01*
G37*
G36*
X2016912Y13658799D02*
G01*
X2014728Y13658291D01*
X2012950Y13656868D01*
X2012340Y13655954D01*
X2011984Y13654887D01*
X2011984Y13612317D01*
X2012340Y13611250D01*
X2013762Y13609472D01*
X2014728Y13608862D01*
X2015794Y13608507D01*
X2170430Y13608507D01*
X2171496Y13608862D01*
X2173274Y13610285D01*
X2173884Y13611250D01*
X2174240Y13612317D01*
X2174240Y13654887D01*
X2173884Y13655954D01*
X2172462Y13657681D01*
X2171496Y13658291D01*
X2169312Y13658799D01*
G37*
G36*
X2374392Y13658799D02*
G01*
X2372207Y13658291D01*
X2371242Y13657681D01*
X2369870Y13655954D01*
X2369362Y13653769D01*
X2369362Y13613434D01*
X2369870Y13611250D01*
X2371242Y13609472D01*
X2372207Y13608862D01*
X2373274Y13608507D01*
X2527960Y13608507D01*
X2529027Y13608862D01*
X2529992Y13609472D01*
X2531364Y13611250D01*
X2531872Y13613434D01*
X2531872Y13653769D01*
X2531364Y13655954D01*
X2529992Y13657681D01*
X2529027Y13658291D01*
X2526842Y13658799D01*
G37*
G36*
X2374392Y13748766D02*
G01*
X2373274Y13748664D01*
X2372207Y13748308D01*
X2371242Y13747699D01*
X2369870Y13745921D01*
X2369362Y13743736D01*
X2369362Y13703452D01*
X2369870Y13701217D01*
X2371242Y13699490D01*
X2372207Y13698880D01*
X2374392Y13698372D01*
X2526842Y13698372D01*
X2529027Y13698880D01*
X2529992Y13699490D01*
X2531364Y13701217D01*
X2531872Y13703452D01*
X2531872Y13743736D01*
X2531364Y13745921D01*
X2529992Y13747699D01*
X2529027Y13748308D01*
X2527960Y13748664D01*
G37*
G36*
X2529687Y13579195D02*
G01*
X2525674Y13575182D01*
X2525674Y13525144D01*
X2529687Y13521131D01*
X2575712Y13521131D01*
X2579725Y13525144D01*
X2579725Y13575182D01*
X2575712Y13579195D01*
G37*
G36*
X2529687Y13494105D02*
G01*
X2525674Y13490143D01*
X2525674Y13440054D01*
X2529687Y13436041D01*
X2575712Y13436041D01*
X2579725Y13440054D01*
X2579725Y13490143D01*
X2575712Y13494105D01*
G37*
D24*
X1517980Y13385800D02*
G01*
X1447980Y13385800D01*
X1517980Y13512800D02*
G01*
X1447980Y13512800D01*
X1517980Y13639800D02*
G01*
X1447980Y13639800D01*
X1517980Y13766800D02*
G01*
X1447980Y13766800D01*
X1517980Y13893800D02*
G01*
X1447980Y13893800D01*
X1517980Y14020800D02*
G01*
X1447980Y14020800D01*
X837996Y13385800D02*
G01*
X767996Y13385800D01*
X837996Y13512800D02*
G01*
X767996Y13512800D01*
X837996Y13639800D02*
G01*
X767996Y13639800D01*
X837996Y13893800D02*
G01*
X767996Y13893800D01*
X837996Y14020800D02*
G01*
X767996Y14020800D01*
X837996Y13766800D02*
G01*
X767996Y13766800D01*
G36*
X1509301Y13332599D02*
G01*
X1589300Y13332599D01*
X1589300Y13032600D01*
X1509301Y13032600D01*
G37*
G36*
X1378745Y14113573D02*
G01*
X1378745Y14193573D01*
X1228742Y14193573D01*
X1228742Y14113573D01*
G37*
G36*
X1078745Y14113573D02*
G01*
X1078745Y14193573D01*
X928743Y14193573D01*
X928743Y14113573D01*
G37*
G36*
X2350602Y13296214D02*
G01*
X2450602Y13296214D01*
X2450602Y13351215D01*
X2350602Y13351215D01*
G37*
G36*
X2350602Y13391210D02*
G01*
X2450602Y13391210D01*
X2450602Y13446211D01*
X2350602Y13446211D01*
G37*
G36*
X2350602Y13486206D02*
G01*
X2450602Y13486206D01*
X2450602Y13541207D01*
X2350602Y13541207D01*
G37*
G36*
X2070592Y13486206D02*
G01*
X2170592Y13486206D01*
X2170592Y13541207D01*
X2070592Y13541207D01*
G37*
G36*
X2070592Y13391210D02*
G01*
X2170592Y13391210D01*
X2170592Y13446211D01*
X2070592Y13446211D01*
G37*
G36*
X2070592Y13296214D02*
G01*
X2170592Y13296214D01*
X2170592Y13351215D01*
X2070592Y13351215D01*
G37*
G36*
X2220600Y14029418D02*
G01*
X2100600Y14029418D01*
X2100600Y13849418D01*
X2220600Y13849418D01*
G37*
G36*
X2420599Y14029418D02*
G01*
X2300599Y14029418D01*
X2300599Y13849418D01*
X2420599Y13849418D01*
G37*
M02*
