G04 Layer: TopSilkLayer*
G04 EasyEDA v6.4.25, 2021-12-20T14:24:14+08:00*
G04 e4404237a4cc4071a16999871e39c68f,c1e8d67ad17f4412881db65ed68e30a3,10*
G04 Gerber Generator version 0.2*
G04 Scale: 100 percent, Rotated: No, Reflected: No *
G04 Dimensions in millimeters *
G04 leading zeros omitted , absolute positions ,4 integer and 5 decimal *
%FSLAX45Y45*%
%MOMM*%

%ADD10C,0.2540*%
%ADD28C,0.1524*%
%ADD29C,0.3000*%

%LPD*%
D28*
X1066800Y13653516D02*
G01*
X1066800Y13575537D01*
X1071879Y13560044D01*
X1082294Y13549629D01*
X1098042Y13544550D01*
X1108455Y13544550D01*
X1123950Y13549629D01*
X1134363Y13560044D01*
X1139444Y13575537D01*
X1139444Y13653516D01*
X1179068Y13627607D02*
G01*
X1179068Y13632687D01*
X1184147Y13643102D01*
X1189481Y13648436D01*
X1199895Y13653516D01*
X1220470Y13653516D01*
X1230884Y13648436D01*
X1236218Y13643102D01*
X1241297Y13632687D01*
X1241297Y13622274D01*
X1236218Y13611860D01*
X1225804Y13596366D01*
X1173734Y13544550D01*
X1246631Y13544550D01*
G36*
X1825091Y13915796D02*
G01*
X1825091Y13865809D01*
X1875078Y13915796D01*
G37*
G36*
X2390597Y13325094D02*
G01*
X2390597Y13293090D01*
X2421077Y13293090D01*
X2421077Y13325094D01*
G37*
G36*
X2390597Y13493546D02*
G01*
X2390597Y13461542D01*
X2421077Y13461542D01*
X2421077Y13493546D01*
G37*
X2181621Y14014678D02*
G01*
X2253424Y14014678D01*
X2253424Y13914958D01*
X2181621Y13914958D01*
X2136378Y14014678D02*
G01*
X2064575Y14014678D01*
X2064575Y13914958D01*
X2136378Y13914958D01*
X2526360Y13599297D02*
G01*
X2526360Y13527493D01*
X2426639Y13527493D01*
X2426639Y13599297D01*
X2526360Y13644539D02*
G01*
X2526360Y13716342D01*
X2426639Y13716342D01*
X2426639Y13644539D01*
D10*
X2521099Y13812319D02*
G01*
X2521099Y13725918D01*
X2521099Y13725918D02*
G01*
X2421097Y13725918D01*
X2381100Y13907315D02*
G01*
X2381100Y13844521D01*
X2521099Y14025918D02*
G01*
X2521099Y13939517D01*
X2521099Y14025918D02*
G01*
X2421097Y14025918D01*
X1820100Y13710818D02*
G01*
X1730100Y13710818D01*
X2340099Y13640818D02*
G01*
X2340099Y13780818D01*
X2380099Y13710818D02*
G01*
X2300099Y13710818D01*
X2260099Y13520818D02*
G01*
X1880100Y13520818D01*
X1880100Y13900818D01*
X2260099Y13900818D01*
X2260099Y13520818D01*
D28*
X2398222Y13485942D02*
G01*
X2122977Y13485942D01*
X2398222Y13300694D02*
G01*
X2122977Y13300694D01*
X2122977Y13300694D02*
G01*
X2122977Y13319998D01*
X2122977Y13485942D02*
G01*
X2122977Y13466638D01*
X2352278Y13305696D02*
G01*
X2352278Y13480940D01*
X2566339Y13774348D02*
G01*
X2566339Y13695339D01*
X2666060Y13695339D02*
G01*
X2666060Y13774348D01*
X2650820Y13789588D02*
G01*
X2581579Y13789588D01*
X2566339Y13571087D02*
G01*
X2566339Y13650097D01*
X2666060Y13650097D02*
G01*
X2666060Y13571087D01*
X2650820Y13555847D02*
G01*
X2581579Y13555847D01*
X879129Y13384060D02*
G01*
X879129Y13819339D01*
X1406870Y13819339D01*
X1406870Y13384060D01*
X879129Y13384060D01*
G75*
G01*
X2666060Y13774349D02*
G03*
X2650820Y13789589I-15240J0D01*
G75*
G01*
X2581580Y13789589D02*
G03*
X2566340Y13774349I0J-15240D01*
G75*
G01*
X2666060Y13571088D02*
G02*
X2650820Y13555848I-15240J0D01*
G75*
G01*
X2581580Y13555848D02*
G02*
X2566340Y13571088I0J15240D01*
D10*
G75*
G01
X2310105Y13600811D02*
G03X2310105Y13600811I-10008J0D01*
D29*
G75*
G01
X967511Y13459308D02*
G03X967511Y13459308I-15011J0D01*
G75*
G01
X890778Y13248691D02*
G03X890778Y13248691I-15011J0D01*
M02*
