G04 Layer: BottomSilkLayer*
G04 EasyEDA v6.4.25, 2021-12-20T14:24:14+08:00*
G04 e4404237a4cc4071a16999871e39c68f,c1e8d67ad17f4412881db65ed68e30a3,10*
G04 Gerber Generator version 0.2*
G04 Scale: 100 percent, Rotated: No, Reflected: No *
G04 Dimensions in millimeters *
G04 leading zeros omitted , absolute positions ,4 integer and 5 decimal *
%FSLAX45Y45*%
%MOMM*%

%ADD10C,0.2540*%
%ADD28C,0.1524*%
%ADD30C,0.0508*%
%ADD31C,0.0762*%

%LPD*%
D28*
X2238984Y13116664D02*
G01*
X2238984Y13194596D01*
X2244178Y13210181D01*
X2254570Y13220572D01*
X2270158Y13225767D01*
X2280549Y13225767D01*
X2296134Y13220572D01*
X2306525Y13210181D01*
X2311720Y13194596D01*
X2311720Y13116664D01*
X2356401Y13116664D02*
G01*
X2413551Y13116664D01*
X2382380Y13158228D01*
X2397965Y13158228D01*
X2408356Y13163422D01*
X2413551Y13168617D01*
X2418748Y13184205D01*
X2418748Y13194596D01*
X2413551Y13210181D01*
X2403160Y13220572D01*
X2387574Y13225767D01*
X2371989Y13225767D01*
X2356401Y13220572D01*
X2351206Y13215378D01*
X2346010Y13204987D01*
X2744215Y13507618D02*
G01*
X2635250Y13507618D01*
X2744215Y13507618D02*
G01*
X2744215Y13554354D01*
X2739136Y13569848D01*
X2733802Y13575182D01*
X2723388Y13580262D01*
X2712974Y13580262D01*
X2702559Y13575182D01*
X2697479Y13569848D01*
X2692400Y13554354D01*
X2692400Y13507618D01*
X2692400Y13543940D02*
G01*
X2635250Y13580262D01*
X2718308Y13619886D02*
G01*
X2723388Y13619886D01*
X2733802Y13624966D01*
X2739136Y13630300D01*
X2744215Y13640714D01*
X2744215Y13661288D01*
X2739136Y13671702D01*
X2733802Y13677036D01*
X2723388Y13682116D01*
X2712974Y13682116D01*
X2702559Y13677036D01*
X2687065Y13666622D01*
X2635250Y13614552D01*
X2635250Y13687450D01*
X2262200Y14219834D02*
G01*
X2262200Y14110868D01*
X2262200Y14110868D02*
G01*
X2199970Y14110868D01*
X2165680Y14199006D02*
G01*
X2155266Y14204340D01*
X2139518Y14219834D01*
X2139518Y14110868D01*
X1320800Y13168873D02*
G01*
X1320800Y13246851D01*
X1325879Y13262345D01*
X1336294Y13272759D01*
X1352042Y13277839D01*
X1362455Y13277839D01*
X1377950Y13272759D01*
X1388363Y13262345D01*
X1393444Y13246851D01*
X1393444Y13168873D01*
X1427734Y13189701D02*
G01*
X1438147Y13184367D01*
X1453895Y13168873D01*
X1453895Y13277839D01*
D30*
X903798Y13987759D02*
G01*
X903798Y14036250D01*
X903798Y13987759D02*
G01*
X924580Y13987759D01*
X931506Y13990071D01*
X933815Y13992379D01*
X936124Y13996997D01*
X936124Y14001615D01*
X933815Y14006233D01*
X931506Y14008541D01*
X924580Y14010850D01*
X903798Y14010850D02*
G01*
X924580Y14010850D01*
X931506Y14013159D01*
X933815Y14015471D01*
X936124Y14020088D01*
X936124Y14027015D01*
X933815Y14031633D01*
X931506Y14033941D01*
X924580Y14036250D01*
X903798Y14036250D01*
X969838Y13987759D02*
G01*
X951364Y14036250D01*
X969838Y13987759D02*
G01*
X988311Y14036250D01*
X958293Y14020088D02*
G01*
X981384Y14020088D01*
X1019716Y13987759D02*
G01*
X1019716Y14036250D01*
X1003551Y13987759D02*
G01*
X1035878Y13987759D01*
X903785Y13860741D02*
G01*
X903785Y13909233D01*
X903785Y13860741D02*
G01*
X924567Y13860741D01*
X931494Y13863050D01*
X933803Y13865359D01*
X936111Y13869977D01*
X936111Y13874595D01*
X933803Y13879215D01*
X931494Y13881524D01*
X924567Y13883833D01*
X903785Y13883833D01*
X919947Y13883833D02*
G01*
X936111Y13909233D01*
X983678Y13867668D02*
G01*
X979060Y13863050D01*
X972134Y13860741D01*
X962898Y13860741D01*
X955969Y13863050D01*
X951351Y13867668D01*
X951351Y13872286D01*
X953660Y13876903D01*
X955969Y13879215D01*
X960587Y13881524D01*
X974443Y13886141D01*
X979060Y13888450D01*
X981369Y13890759D01*
X983678Y13895377D01*
X983678Y13902303D01*
X979060Y13906924D01*
X972134Y13909233D01*
X962898Y13909233D01*
X955969Y13906924D01*
X951351Y13902303D01*
X1015083Y13860741D02*
G01*
X1015083Y13909233D01*
X998918Y13860741D02*
G01*
X1031247Y13860741D01*
X938420Y13618291D02*
G01*
X936111Y13613671D01*
X931491Y13609053D01*
X926873Y13606744D01*
X917638Y13606744D01*
X913020Y13609053D01*
X908403Y13613671D01*
X906091Y13618291D01*
X903782Y13625217D01*
X903782Y13636762D01*
X906091Y13643691D01*
X908403Y13648309D01*
X913020Y13652926D01*
X917638Y13655235D01*
X926873Y13655235D01*
X931491Y13652926D01*
X936111Y13648309D01*
X938420Y13643691D01*
X953660Y13606744D02*
G01*
X953660Y13655235D01*
X953660Y13655235D02*
G01*
X981369Y13655235D01*
X996609Y13606744D02*
G01*
X996609Y13655235D01*
X1028936Y13606744D02*
G01*
X996609Y13639071D01*
X1008153Y13627526D02*
G01*
X1028936Y13655235D01*
X938438Y13491303D02*
G01*
X936129Y13486686D01*
X931511Y13482068D01*
X926894Y13479757D01*
X917656Y13479757D01*
X913038Y13482068D01*
X908420Y13486686D01*
X906111Y13491303D01*
X903803Y13498230D01*
X903803Y13509777D01*
X906111Y13516703D01*
X908420Y13521321D01*
X913038Y13525939D01*
X917656Y13528248D01*
X926894Y13528248D01*
X931511Y13525939D01*
X936129Y13521321D01*
X938438Y13516703D01*
X938438Y13509777D01*
X926894Y13509777D02*
G01*
X938438Y13509777D01*
X953678Y13479757D02*
G01*
X953678Y13528248D01*
X953678Y13479757D02*
G01*
X986005Y13528248D01*
X986005Y13479757D02*
G01*
X986005Y13528248D01*
X1001245Y13479757D02*
G01*
X1001245Y13528248D01*
X1001245Y13479757D02*
G01*
X1017409Y13479757D01*
X1024336Y13482068D01*
X1028956Y13486686D01*
X1031265Y13491303D01*
X1033574Y13498230D01*
X1033574Y13509777D01*
X1031265Y13516703D01*
X1028956Y13521321D01*
X1024336Y13525939D01*
X1017409Y13528248D01*
X1001245Y13528248D01*
X922263Y13352741D02*
G01*
X903792Y13401233D01*
X922263Y13352741D02*
G01*
X940737Y13401233D01*
X910719Y13385068D02*
G01*
X933810Y13385068D01*
X955977Y13352741D02*
G01*
X955977Y13401233D01*
X955977Y13352741D02*
G01*
X988303Y13401233D01*
X988303Y13352741D02*
G01*
X988303Y13401233D01*
X1019708Y13352741D02*
G01*
X1019708Y13401233D01*
X1003543Y13352741D02*
G01*
X1035872Y13352741D01*
X1259408Y13352744D02*
G01*
X1259408Y13401233D01*
X1259408Y13352744D02*
G01*
X1280190Y13352744D01*
X1287117Y13355053D01*
X1289425Y13357362D01*
X1291734Y13361979D01*
X1291734Y13368906D01*
X1289425Y13373524D01*
X1287117Y13375833D01*
X1280190Y13378144D01*
X1259408Y13378144D01*
X1320830Y13352744D02*
G01*
X1313903Y13355053D01*
X1309283Y13361979D01*
X1306974Y13373524D01*
X1306974Y13380453D01*
X1309283Y13391997D01*
X1313903Y13398924D01*
X1320830Y13401233D01*
X1325448Y13401233D01*
X1332374Y13398924D01*
X1336992Y13391997D01*
X1339303Y13380453D01*
X1339303Y13373524D01*
X1336992Y13361979D01*
X1332374Y13355053D01*
X1325448Y13352744D01*
X1320830Y13352744D01*
X1368397Y13352744D02*
G01*
X1361470Y13355053D01*
X1356852Y13361979D01*
X1354543Y13373524D01*
X1354543Y13380453D01*
X1356852Y13391997D01*
X1361470Y13398924D01*
X1368397Y13401233D01*
X1373014Y13401233D01*
X1379943Y13398924D01*
X1384561Y13391997D01*
X1386870Y13380453D01*
X1386870Y13373524D01*
X1384561Y13361979D01*
X1379943Y13355053D01*
X1373014Y13352744D01*
X1368397Y13352744D01*
X1259395Y13479749D02*
G01*
X1259395Y13528240D01*
X1259395Y13479749D02*
G01*
X1280177Y13479749D01*
X1287104Y13482058D01*
X1289413Y13484367D01*
X1291722Y13488984D01*
X1291722Y13495911D01*
X1289413Y13500531D01*
X1287104Y13502840D01*
X1280177Y13505149D01*
X1259395Y13505149D01*
X1320817Y13479749D02*
G01*
X1313891Y13482058D01*
X1309273Y13488984D01*
X1306962Y13500531D01*
X1306962Y13507458D01*
X1309273Y13519002D01*
X1313891Y13525931D01*
X1320817Y13528240D01*
X1325435Y13528240D01*
X1332362Y13525931D01*
X1336982Y13519002D01*
X1339291Y13507458D01*
X1339291Y13500531D01*
X1336982Y13488984D01*
X1332362Y13482058D01*
X1325435Y13479749D01*
X1320817Y13479749D01*
X1354531Y13488984D02*
G01*
X1359148Y13486676D01*
X1366075Y13479749D01*
X1366075Y13528240D01*
X1259398Y13606762D02*
G01*
X1259398Y13655250D01*
X1259398Y13606762D02*
G01*
X1280180Y13606762D01*
X1287106Y13609071D01*
X1289415Y13611379D01*
X1291724Y13615997D01*
X1291724Y13622924D01*
X1289415Y13627541D01*
X1287106Y13629850D01*
X1280180Y13632162D01*
X1259398Y13632162D01*
X1320820Y13606762D02*
G01*
X1313893Y13609071D01*
X1309273Y13615997D01*
X1306964Y13627541D01*
X1306964Y13634471D01*
X1309273Y13646015D01*
X1313893Y13652941D01*
X1320820Y13655250D01*
X1325438Y13655250D01*
X1332364Y13652941D01*
X1336982Y13646015D01*
X1339293Y13634471D01*
X1339293Y13627541D01*
X1336982Y13615997D01*
X1332364Y13609071D01*
X1325438Y13606762D01*
X1320820Y13606762D01*
X1356842Y13618306D02*
G01*
X1356842Y13615997D01*
X1359151Y13611379D01*
X1361460Y13609071D01*
X1366078Y13606762D01*
X1375313Y13606762D01*
X1379933Y13609071D01*
X1382242Y13611379D01*
X1384551Y13615997D01*
X1384551Y13620615D01*
X1382242Y13625233D01*
X1377622Y13632162D01*
X1354533Y13655250D01*
X1386860Y13655250D01*
X1259398Y13733744D02*
G01*
X1259398Y13782235D01*
X1259398Y13733744D02*
G01*
X1280180Y13733744D01*
X1287106Y13736053D01*
X1289415Y13738362D01*
X1291724Y13742979D01*
X1291724Y13749909D01*
X1289415Y13754526D01*
X1287106Y13756835D01*
X1280180Y13759144D01*
X1259398Y13759144D01*
X1320820Y13733744D02*
G01*
X1313891Y13736053D01*
X1309273Y13742979D01*
X1306964Y13754526D01*
X1306964Y13761453D01*
X1309273Y13772997D01*
X1313891Y13779926D01*
X1320820Y13782235D01*
X1325438Y13782235D01*
X1332364Y13779926D01*
X1336982Y13772997D01*
X1339291Y13761453D01*
X1339291Y13754526D01*
X1336982Y13742979D01*
X1332364Y13736053D01*
X1325438Y13733744D01*
X1320820Y13733744D01*
X1359148Y13733744D02*
G01*
X1384548Y13733744D01*
X1370695Y13752217D01*
X1377622Y13752217D01*
X1382240Y13754526D01*
X1384548Y13756835D01*
X1386860Y13763762D01*
X1386860Y13768379D01*
X1384548Y13775309D01*
X1379931Y13779926D01*
X1373004Y13782235D01*
X1366078Y13782235D01*
X1359148Y13779926D01*
X1356840Y13777617D01*
X1354531Y13772997D01*
X1259398Y13987759D02*
G01*
X1259398Y14036250D01*
X1259398Y13987759D02*
G01*
X1280180Y13987759D01*
X1287106Y13990068D01*
X1289418Y13992377D01*
X1291727Y13996995D01*
X1291727Y14003924D01*
X1289418Y14008541D01*
X1287106Y14010850D01*
X1280180Y14013159D01*
X1259398Y14013159D01*
X1320820Y13987759D02*
G01*
X1313893Y13990068D01*
X1309276Y13996995D01*
X1306967Y14008541D01*
X1306967Y14015468D01*
X1309276Y14027015D01*
X1313893Y14033941D01*
X1320820Y14036250D01*
X1325438Y14036250D01*
X1332367Y14033941D01*
X1336984Y14027015D01*
X1339293Y14015468D01*
X1339293Y14008541D01*
X1336984Y13996995D01*
X1332367Y13990068D01*
X1325438Y13987759D01*
X1320820Y13987759D01*
X1377624Y13987759D02*
G01*
X1354533Y14020086D01*
X1389169Y14020086D01*
X1377624Y13987759D02*
G01*
X1377624Y14036250D01*
X1259398Y13860739D02*
G01*
X1259398Y13909230D01*
X1259398Y13860739D02*
G01*
X1280180Y13860739D01*
X1287106Y13863048D01*
X1289415Y13865357D01*
X1291724Y13869977D01*
X1291724Y13876903D01*
X1289415Y13881521D01*
X1287106Y13883830D01*
X1280180Y13886139D01*
X1259398Y13886139D01*
X1320820Y13860739D02*
G01*
X1313893Y13863048D01*
X1309273Y13869977D01*
X1306964Y13881521D01*
X1306964Y13888448D01*
X1309273Y13899995D01*
X1313893Y13906921D01*
X1320820Y13909230D01*
X1325438Y13909230D01*
X1332364Y13906921D01*
X1336982Y13899995D01*
X1339293Y13888448D01*
X1339293Y13881521D01*
X1336982Y13869977D01*
X1332364Y13863048D01*
X1325438Y13860739D01*
X1320820Y13860739D01*
X1382242Y13860739D02*
G01*
X1359151Y13860739D01*
X1356842Y13881521D01*
X1359151Y13879212D01*
X1366078Y13876903D01*
X1373004Y13876903D01*
X1379933Y13879212D01*
X1384551Y13883830D01*
X1386860Y13890757D01*
X1386860Y13895377D01*
X1384551Y13902303D01*
X1379933Y13906921D01*
X1373004Y13909230D01*
X1366078Y13909230D01*
X1359151Y13906921D01*
X1356842Y13904612D01*
X1354533Y13899995D01*
D31*
X1005385Y13174713D02*
G01*
X1005385Y13247451D01*
X1005385Y13174713D02*
G01*
X1036558Y13174713D01*
X1046949Y13178177D01*
X1050411Y13181642D01*
X1053876Y13188569D01*
X1053876Y13198960D01*
X1050411Y13205886D01*
X1046949Y13209351D01*
X1036558Y13212813D01*
X1005385Y13212813D01*
X1076736Y13174713D02*
G01*
X1094054Y13247451D01*
X1111371Y13174713D02*
G01*
X1094054Y13247451D01*
X1111371Y13174713D02*
G01*
X1128689Y13247451D01*
X1146009Y13174713D02*
G01*
X1128689Y13247451D01*
X1189649Y13174713D02*
G01*
X1179261Y13178177D01*
X1172331Y13188569D01*
X1168869Y13205886D01*
X1168869Y13216277D01*
X1172331Y13233595D01*
X1179261Y13243986D01*
X1189649Y13247451D01*
X1196578Y13247451D01*
X1206969Y13243986D01*
X1213896Y13233595D01*
X1217361Y13216277D01*
X1217361Y13205886D01*
X1213896Y13188569D01*
X1206969Y13178177D01*
X1196578Y13174713D01*
X1189649Y13174713D01*
X1243683Y13192033D02*
G01*
X1243683Y13188569D01*
X1247147Y13181642D01*
X1250609Y13178177D01*
X1257538Y13174713D01*
X1271391Y13174713D01*
X1278321Y13178177D01*
X1281783Y13181642D01*
X1285247Y13188569D01*
X1285247Y13195495D01*
X1281783Y13202424D01*
X1274856Y13212813D01*
X1240221Y13247451D01*
X1288709Y13247451D01*
D30*
X903785Y13733759D02*
G01*
X903785Y13782250D01*
X903785Y13733759D02*
G01*
X919947Y13733759D01*
X926876Y13736068D01*
X931494Y13740686D01*
X933803Y13745306D01*
X936111Y13752233D01*
X936111Y13763777D01*
X933803Y13770706D01*
X931494Y13775324D01*
X926876Y13779941D01*
X919947Y13782250D01*
X903785Y13782250D01*
X951351Y13733759D02*
G01*
X951351Y13782250D01*
X980447Y13733759D02*
G01*
X975827Y13736068D01*
X971209Y13740686D01*
X968900Y13745306D01*
X966591Y13752233D01*
X966591Y13763777D01*
X968900Y13770706D01*
X971209Y13775324D01*
X975827Y13779941D01*
X980447Y13782250D01*
X989683Y13782250D01*
X994300Y13779941D01*
X998918Y13775324D01*
X1001227Y13770706D01*
X1003538Y13763777D01*
X1003538Y13752233D01*
X1001227Y13745306D01*
X998918Y13740686D01*
X994300Y13736068D01*
X989683Y13733759D01*
X980447Y13733759D01*
D28*
X2347048Y13627981D02*
G01*
X2211758Y13627981D01*
X2347048Y13753221D02*
G01*
X2211758Y13753221D01*
D10*
X2170600Y13263727D02*
G01*
X2350602Y13263727D01*
X2170600Y13573729D02*
G01*
X2350602Y13573729D01*
D28*
X2502839Y13484997D02*
G01*
X2502839Y13413193D01*
X2602560Y13413193D01*
X2602560Y13484997D01*
X2502839Y13530239D02*
G01*
X2502839Y13602042D01*
X2602560Y13602042D01*
X2602560Y13530239D01*
D10*
X2310599Y14059418D02*
G01*
X2415598Y14059418D01*
X2310599Y13819418D02*
G01*
X2415598Y13819418D01*
X2210600Y14059418D02*
G01*
X2105601Y14059418D01*
X2210600Y13819418D02*
G01*
X2105601Y13819418D01*
X2450597Y14039418D02*
G01*
X2450597Y13839418D01*
X2070602Y14039418D02*
G01*
X2070602Y13839418D01*
X2415598Y14059418D02*
G01*
X2430597Y14059418D01*
X2450597Y14039418D01*
X2415598Y13819418D02*
G01*
X2430597Y13819418D01*
X2450597Y13839418D01*
X2105601Y14059418D02*
G01*
X2090602Y14059418D01*
X2070602Y14039418D01*
X2105601Y13819418D02*
G01*
X2090602Y13819418D01*
X2070602Y13839418D01*
X802995Y13129811D02*
G01*
X802995Y14089811D01*
X1482996Y14089811D01*
X1482996Y13129811D01*
X802995Y13129811D01*
G75*
G01
X2413000Y13583818D02*
G03X2413000Y13583818I-12700J0D01*
M02*
